<svg xmlns="http://www.w3.org/2000/svg" viewBox="0 0 597.5 283.5"><defs><style>.cls-1{isolation:isolate;}.cls-2{fill:#001d85;}.cls-3,.cls-4{fill:#272425;}.cls-4,.cls-5{mix-blend-mode:multiply;}.cls-6{fill:#a4a5a8;}.cls-7{fill:#727476;}</style></defs><g class="cls-1"><g id="Layer_1" data-name="Layer 1"><path class="cls-2" d="M369.88,170A68.32,68.32,0,0,0,389,164.86a36.45,36.45,0,0,0,14-10.6c3.64-4.58,5.48-10.61,5.48-17.91a23.22,23.22,0,0,0-7.47-17.75c-4.93-4.58-11.88-6.9-20.67-6.9a48,48,0,0,0-22,5A52.73,52.73,0,0,0,341.57,130a59.7,59.7,0,0,0-10.6,19A67.6,67.6,0,0,0,327.31,171a43.15,43.15,0,0,0,2.08,13.54,30,30,0,0,0,18,19A44.84,44.84,0,0,0,364,206.3a70.52,70.52,0,0,0,17-1.88,69.08,69.08,0,0,0,11.58-3.76,1.49,1.49,0,0,0,.87-1.5l-1.67-16.32a1.49,1.49,0,0,0-2.05-1.23,57.93,57.93,0,0,1-22.09,4.55c-11.88,0-17.66-4.47-17.66-13.67v-.88C356.65,171.36,363.35,170.81,369.88,170ZM355,146.14a34.31,34.31,0,0,1,5.82-7.91,25,25,0,0,1,7.54-5.18,21.65,21.65,0,0,1,8.89-1.87c3.54,0,6,.73,7.31,2.17a7.19,7.19,0,0,1,2,5c0,5-2.68,8.6-8.21,11.13s-14.47,4.1-26.54,4.62A35.63,35.63,0,0,1,355,146.14ZM456.73,112a95.82,95.82,0,0,0-19,1.78c-5.74,1.16-10.91,2.44-15.37,3.78a1.47,1.47,0,0,0-1,1.08l-20,83.45a1.49,1.49,0,0,0,1.45,1.84H423a1.5,1.5,0,0,0,1.45-1.15l16.5-69.6A45.24,45.24,0,0,1,452.06,132c5.15,0,8.59,1.09,10.22,3.24a13.34,13.34,0,0,1,2.45,8.69,44,44,0,0,1-1,7.08c-.56,2.55-1.11,5-1.67,7.47l-10.3,43.64a1.49,1.49,0,0,0,1.45,1.84h20.13a1.5,1.5,0,0,0,1.45-1.15l11-45.86c.55-2.74,1-5.48,1.43-8.15a53.36,53.36,0,0,0,.6-7.63c0-8.8-2.55-15.92-7.58-21.19S467.32,112,456.73,112Zm-363,66.47a1.51,1.51,0,0,0-1.34,0A102.4,102.4,0,0,1,80.53,183,54.64,54.64,0,0,1,64,185.16c-8.19,0-14.46-2.33-18.64-6.92s-6.36-12-6.36-21.9a63,63,0,0,1,3-19.21,53.7,53.7,0,0,1,8.75-16.77,45.78,45.78,0,0,1,13.8-11.86A36.54,36.54,0,0,1,82.65,104,48.18,48.18,0,0,1,96,105.72,47.07,47.07,0,0,1,107,110.48a1.53,1.53,0,0,0,1.2.14,1.47,1.47,0,0,0,.91-.78l8-16.83a1.49,1.49,0,0,0-.6-1.93,66.91,66.91,0,0,0-13.89-5.8A65.34,65.34,0,0,0,84,82.89a65.63,65.63,0,0,0-29.31,6.4,68.48,68.48,0,0,0-22,16.94,75.21,75.21,0,0,0-13.76,24A83.33,83.33,0,0,0,14.2,158a59.63,59.63,0,0,0,3.17,20,43.07,43.07,0,0,0,9.23,15.35,40,40,0,0,0,14.7,9.77,53.53,53.53,0,0,0,19.53,3.35,81,81,0,0,0,21-2.38,75.24,75.24,0,0,0,14.28-5.28,1.48,1.48,0,0,0,.79-1.53l-2.5-17.66A1.48,1.48,0,0,0,93.69,178.51Zm91.2-32.17c0-10.32-2.88-18.75-8.55-25.06s-14-9.58-24.76-9.58c-8.67,0-16.32,1.92-22.74,5.71a52.23,52.23,0,0,0-15.94,14.4,62.27,62.27,0,0,0-9.39,19.28,73.34,73.34,0,0,0-3.06,20.4c0,10.33,2.88,18.79,8.54,25.15s14,9.66,24.77,9.66c8.78,0,16.51-1.92,23-5.7a51.41,51.41,0,0,0,15.95-14.41,62.26,62.26,0,0,0,9.22-19.29A76,76,0,0,0,184.89,146.34Zm-24.76,14.95a48.28,48.28,0,0,1-5.08,12.36,30.61,30.61,0,0,1-8.1,9,17.59,17.59,0,0,1-10.69,3.46c-4.84,0-8.09-1.36-9.92-4.16s-2.92-7.11-2.92-12.34a50.67,50.67,0,0,1,1.79-13,49.68,49.68,0,0,1,5.09-12.37,30.16,30.16,0,0,1,8.09-9.13,17.66,17.66,0,0,1,10.69-3.46c4.83,0,8.07,1.39,9.91,4.23,1.94,3,2.93,7.21,2.93,12.44A51.2,51.2,0,0,1,160.13,161.29ZM235,112a95.79,95.79,0,0,0-19,1.78c-5.74,1.16-10.91,2.44-15.38,3.78a1.5,1.5,0,0,0-1,1.08l-20,83.45a1.49,1.49,0,0,0,.27,1.27,1.51,1.51,0,0,0,1.18.57h20.27a1.5,1.5,0,0,0,1.45-1.15l16.5-69.6A45.24,45.24,0,0,1,230.38,132c5.15,0,8.59,1.09,10.22,3.24a13.4,13.4,0,0,1,2.45,8.69,43,43,0,0,1-1,7.08c-.55,2.55-1.11,5-1.66,7.47l-10.3,43.64a1.49,1.49,0,0,0,1.45,1.84H251.7a1.5,1.5,0,0,0,1.45-1.15l11-45.86c.55-2.76,1-5.5,1.42-8.15a51.84,51.84,0,0,0,.6-7.63c0-8.8-2.55-15.92-7.57-21.19S245.63,112,235,112Zm320.8,2.4a1.51,1.51,0,0,0-1.17-.57H528.05L534,89.39a1.49,1.49,0,0,0-1.68-1.82l-21,3.33A1.47,1.47,0,0,0,510.08,92l-17,71.62a93.78,93.78,0,0,0-1.78,9.22,61.65,61.65,0,0,0-.6,8.45c0,7.59,2.22,13.69,6.59,18.12s11.63,6.69,21.55,6.69a56.65,56.65,0,0,0,14-1.55,66.74,66.74,0,0,0,9.89-3.24,1.48,1.48,0,0,0,.89-1.5l-1.5-16.16a1.5,1.5,0,0,0-.72-1.14,1.48,1.48,0,0,0-1.34-.09,59.5,59.5,0,0,1-7.16,2.43,30.5,30.5,0,0,1-8.26,1.11,17.59,17.59,0,0,1-6-.82,7.64,7.64,0,0,1-3.07-1.92,5.73,5.73,0,0,1-1.33-2.66,17.11,17.11,0,0,1-.38-3.6,32.66,32.66,0,0,1,.3-4.22c.21-1.57.58-3.57,1.09-5.92l8.06-33.34h27.37a1.5,1.5,0,0,0,1.45-1.15l4-16.65A1.52,1.52,0,0,0,555.84,114.44Z"/><path class="cls-2" d="M564.94,114.08v-10.6h4.32a7.13,7.13,0,0,1,2.37.29,2.4,2.4,0,0,1,1.18,1,3.12,3.12,0,0,1,.45,1.67,3,3,0,0,1-.67,2,3.2,3.2,0,0,1-2,1,4.8,4.8,0,0,1,1.1.89,11.83,11.83,0,0,1,1.16,1.73l1.25,2.06h-2.47l-1.46-2.31a15.28,15.28,0,0,0-1.1-1.56,1.46,1.46,0,0,0-.61-.44,3.3,3.3,0,0,0-1-.12H567v4.43Zm2-6.12h1.52a7.92,7.92,0,0,0,1.84-.13,1.12,1.12,0,0,0,.57-.46,1.36,1.36,0,0,0,.21-.79,1.17,1.17,0,0,0-1-1.27c-.16,0-.66,0-1.49,0H567Z"/><path class="cls-2" d="M560.65,109a8.36,8.36,0,1,0,8.36-8.68,8.54,8.54,0,0,0-8.36,8.68m1,0a7.41,7.41,0,1,1,7.41,7.71A7.56,7.56,0,0,1,561.6,109"/><path class="cls-3" d="M127.2,182.94a7.84,7.84,0,0,1-1-1.25c-1.93-2.94-2.91-7.07-2.91-12.27A50.43,50.43,0,0,1,125,156.47a49,49,0,0,1,5.06-12.3,30,30,0,0,1,8-9.08,17.53,17.53,0,0,1,10.63-3.44,16,16,0,0,1,5.5.85c-1.91-1.92-4.78-2.87-8.75-2.87a17.59,17.59,0,0,0-10.63,3.43,30.07,30.07,0,0,0-8,9.08,49.51,49.51,0,0,0-5.07,12.3A50.9,50.9,0,0,0,120,167.39c0,5.21,1,9.33,2.91,12.27A8.31,8.31,0,0,0,127.2,182.94Z"/><path class="cls-3" d="M185,146.62c0-10.27-2.85-18.65-8.49-24.92a26.33,26.33,0,0,0-7.41-5.75,26.67,26.67,0,0,1,4.16,3.72c5.64,6.28,8.49,14.66,8.49,24.92a75.48,75.48,0,0,1-3,20.44,61.49,61.49,0,0,1-9.16,19.17,50.83,50.83,0,0,1-15.86,14.33c-6.44,3.76-14.13,5.67-22.86,5.67a36.44,36.44,0,0,1-17.11-3.75c5.29,3.83,12.11,5.77,20.37,5.77,8.72,0,16.41-1.91,22.85-5.67a50.93,50.93,0,0,0,15.86-14.32A61.7,61.7,0,0,0,182,167.06,75.54,75.54,0,0,0,185,146.62Z"/><path class="cls-4" d="M93.69,178.64a1.48,1.48,0,0,0-1.33,0l-1,.43,2.3,16.23a1.48,1.48,0,0,1-.79,1.53A74.7,74.7,0,0,1,78.7,202a80,80,0,0,1-20.92,2.37,53.39,53.39,0,0,1-19.42-3.33,42.07,42.07,0,0,1-5.29-2.5,41.88,41.88,0,0,0,8.54,4.53A53.39,53.39,0,0,0,61,206.43,80.47,80.47,0,0,0,82,204.06a74.4,74.4,0,0,0,14.2-5.25,1.48,1.48,0,0,0,.79-1.52l-2.49-17.56A1.44,1.44,0,0,0,93.69,178.64Z"/><path class="cls-3" d="M524.26,114.21H528l5.94-24.34a1.48,1.48,0,0,0-.36-1.35,1.44,1.44,0,0,0-1.32-.46l-1.69.27Z"/><path class="cls-3" d="M374.15,129.51a21.7,21.7,0,0,0-8.84,1.86,24.93,24.93,0,0,0-7.5,5.16,34.19,34.19,0,0,0-5.79,7.86,35.52,35.52,0,0,0-3.13,7.92c1.35-.06,2.65-.13,3.92-.22a35.94,35.94,0,0,1,2.46-5.68,34.42,34.42,0,0,1,5.79-7.85,24.79,24.79,0,0,1,7.51-5.16,21.49,21.49,0,0,1,8.83-1.86,16.23,16.23,0,0,1,4.3.5c-.1-.12-.18-.25-.28-.36C380.11,130.24,377.67,129.51,374.15,129.51Z"/><path class="cls-3" d="M397.68,117a23.12,23.12,0,0,1,7.43,17.65c0,7.26-1.84,13.25-5.46,17.81A36.24,36.24,0,0,1,385.77,163a67.88,67.88,0,0,1-19,5.09c-6.49.83-13.15,1.37-19.81,1.62v.88c0,5.84,2.35,9.75,7.11,11.82-2.57-2.25-3.86-5.49-3.86-9.8v-.88c6.66-.24,13.32-.79,19.82-1.62A68.24,68.24,0,0,0,389,165a36.47,36.47,0,0,0,13.89-10.54c3.61-4.55,5.45-10.55,5.45-17.81a22.89,22.89,0,0,0-12.44-21.13A22.33,22.33,0,0,1,397.68,117Z"/><path class="cls-3" d="M113.76,91.2l-8,16.85a1.47,1.47,0,0,1-2.09.65,46.85,46.85,0,0,0-11-4.77,47.64,47.64,0,0,0-13.25-1.7,36.19,36.19,0,0,0-18,4.48,45.63,45.63,0,0,0-13.71,11.88,53.8,53.8,0,0,0-8.7,16.81,63.49,63.49,0,0,0-3,19.23c0,9.91,2.12,17.29,6.32,21.93a18.92,18.92,0,0,0,5.77,4.32,18.15,18.15,0,0,1-2.52-2.28c-4.2-4.64-6.32-12-6.32-21.93a63.51,63.51,0,0,1,3-19.24,54.07,54.07,0,0,1,8.7-16.8,45.63,45.63,0,0,1,13.71-11.88,36.21,36.21,0,0,1,18-4.48A47.64,47.64,0,0,1,96,106a46.85,46.85,0,0,1,11,4.77,1.5,1.5,0,0,0,1.19.14,1.47,1.47,0,0,0,.9-.79l8-16.85a1.49,1.49,0,0,0-.6-1.93c-.86-.5-1.78-1-2.7-1.44A1.48,1.48,0,0,1,113.76,91.2Z"/><path class="cls-3" d="M480.2,120.42a22.17,22.17,0,0,0-5.84-4.27A21.43,21.43,0,0,1,477,118.4c5,5.23,7.53,12.32,7.53,21.06a51.42,51.42,0,0,1-.6,7.59c-.4,2.65-.87,5.37-1.42,8.1l-10.94,45.59a1.48,1.48,0,0,1-1.44,1.14H451.92l-.05.2a1.47,1.47,0,0,0,.29,1.26,1.45,1.45,0,0,0,1.16.56h20a1.48,1.48,0,0,0,1.44-1.13l10.94-45.6c.55-2.72,1-5.45,1.42-8.1a51.32,51.32,0,0,0,.6-7.59C487.73,132.74,485.19,125.65,480.2,120.42Z"/><path class="cls-3" d="M541.37,182.48a1.46,1.46,0,0,0-1.33-.1c-.35.15-.72.29-1.09.43l1.38,14.84a1.48,1.48,0,0,1-.89,1.49,67,67,0,0,1-9.83,3.23,56.54,56.54,0,0,1-13.94,1.53c-6.84,0-12.37-1.1-16.59-3.23,4.43,3.48,11.09,5.26,19.84,5.26a56.65,56.65,0,0,0,14-1.54,67.34,67.34,0,0,0,9.82-3.22,1.49,1.49,0,0,0,.89-1.5l-1.49-16.06A1.48,1.48,0,0,0,541.37,182.48Z"/><path class="cls-3" d="M555.69,114.77a1.48,1.48,0,0,0-1.17-.56h-1.86l-3.92,16.36a1.48,1.48,0,0,1-1.44,1.13H520.09l-8,33.15c-.51,2.34-.88,4.33-1.09,5.89a32.23,32.23,0,0,0-.3,4.19,16.85,16.85,0,0,0,.38,3.58,5.68,5.68,0,0,0,1.32,2.65,7.63,7.63,0,0,0,3.06,1.91l.14,0a5.7,5.7,0,0,1-1.27-2.58,16.83,16.83,0,0,1-.38-3.57,32.49,32.49,0,0,1,.3-4.2c.21-1.55.58-3.55,1.09-5.89l8-33.14h27.21a1.48,1.48,0,0,0,1.44-1.14L556,116A1.46,1.46,0,0,0,555.69,114.77Z"/><path class="cls-3" d="M237.24,133.27c-1.71-1.93-5-2.93-9.89-2.93a44.58,44.58,0,0,0-11,1.21l-16.4,69.19a1.49,1.49,0,0,1-1.45,1.14h-18.3l0,.2a1.46,1.46,0,0,0,.27,1.26,1.51,1.51,0,0,0,1.17.56h20.15a1.49,1.49,0,0,0,1.45-1.14l16.4-69.19a44.73,44.73,0,0,1,11-1.2A20.87,20.87,0,0,1,237.24,133.27Z"/><path class="cls-3" d="M458.78,133.27c-1.72-1.93-5-2.93-9.9-2.93a44.7,44.7,0,0,0-11,1.21l-16.41,69.19a1.47,1.47,0,0,1-1.44,1.14H401.73l-.05.2a1.47,1.47,0,0,0,.28,1.26,1.49,1.49,0,0,0,1.16.56h20.15a1.49,1.49,0,0,0,1.45-1.14l16.4-69.19a44.76,44.76,0,0,1,11-1.2A21,21,0,0,1,458.78,133.27Z"/><path class="cls-3" d="M252.82,116.15a20.79,20.79,0,0,1,2.6,2.25c5,5.23,7.53,12.32,7.53,21.06a51.32,51.32,0,0,1-.6,7.59c-.39,2.63-.87,5.35-1.42,8.1L250,200.74a1.48,1.48,0,0,1-1.44,1.14H230.39l0,.2a1.5,1.5,0,0,0,.28,1.26,1.47,1.47,0,0,0,1.17.56h20a1.48,1.48,0,0,0,1.44-1.13l10.94-45.6c.55-2.74,1-5.47,1.42-8.1a51.32,51.32,0,0,0,.6-7.59c0-8.74-2.54-15.83-7.53-21.06A21.84,21.84,0,0,0,252.82,116.15Z"/><path class="cls-3" d="M391.08,181.78a1.45,1.45,0,0,0-1.33-.1c-.36.15-.72.27-1.08.42l1.53,15a1.49,1.49,0,0,1-.86,1.5,69.42,69.42,0,0,1-11.52,3.73,70.19,70.19,0,0,1-16.92,1.87,44.37,44.37,0,0,1-16.44-2.76,35.1,35.1,0,0,1-3.71-1.74,33.05,33.05,0,0,0,7,3.77,44.58,44.58,0,0,0,16.44,2.75,70.73,70.73,0,0,0,16.92-1.86,69.29,69.29,0,0,0,11.52-3.74,1.48,1.48,0,0,0,.86-1.5l-1.66-16.22A1.45,1.45,0,0,0,391.08,181.78Z"/><path class="cls-2" d="M319.76,182.31a1.5,1.5,0,0,0-1.35-.1,61,61,0,0,1-7.15,2.44,30.5,30.5,0,0,1-8.26,1.11,17.84,17.84,0,0,1-6.05-.82,7.8,7.8,0,0,1-3.08-1.92,5.8,5.8,0,0,1-1.32-2.67,16.45,16.45,0,0,1-.38-3.59,32.91,32.91,0,0,1,.3-4.22c.21-1.56.58-3.57,1.09-5.93l8.06-33.34H329a1.5,1.5,0,0,0,1.45-1.14l4-16.65a1.5,1.5,0,0,0-.27-1.28,1.53,1.53,0,0,0-1.17-.56H306.36l5.92-24.48a1.5,1.5,0,0,0-.35-1.36,1.48,1.48,0,0,0-1.33-.46l-21,3.33a1.48,1.48,0,0,0-1.22,1.13l-17,71.62c-.78,3.25-1.38,6.35-1.77,9.22a61.54,61.54,0,0,0-.6,8.45c0,7.59,2.22,13.69,6.59,18.12s11.63,6.69,21.55,6.69a56.76,56.76,0,0,0,14-1.55,66.74,66.74,0,0,0,9.89-3.24,1.5,1.5,0,0,0,.89-1.5l-1.5-16.16A1.5,1.5,0,0,0,319.76,182.31Z"/><g class="cls-5"><path class="cls-6" d="M319.76,182.31a1.5,1.5,0,0,0-1.35-.1l-.88.36,1.38,14.87A1.5,1.5,0,0,1,318,199a69,69,0,0,1-9.88,3.24,57.28,57.28,0,0,1-14,1.54c-7.32,0-13.17-1.23-17.5-3.65,4.45,3.84,11.33,5.82,20.56,5.82a56.76,56.76,0,0,0,14-1.55,66.74,66.74,0,0,0,9.89-3.24,1.5,1.5,0,0,0,.89-1.5l-1.5-16.16A1.5,1.5,0,0,0,319.76,182.31Z"/><path class="cls-6" d="M302.78,113.64h3.59l5.91-24.48a1.5,1.5,0,0,0-.35-1.36,1.48,1.48,0,0,0-1.33-.46l-1.53.24Z"/><path class="cls-6" d="M334.16,114.2a1.53,1.53,0,0,0-1.17-.56h-1.7L327.37,130a1.49,1.49,0,0,1-1.45,1.14H298.55l-8.06,33.34c-.51,2.36-.88,4.36-1.08,5.92a31.31,31.31,0,0,0-.31,4.22,17.11,17.11,0,0,0,.38,3.6,5.83,5.83,0,0,0,1.33,2.66,7.44,7.44,0,0,0,2.78,1.8,5.82,5.82,0,0,1-1-2.3,16.45,16.45,0,0,1-.38-3.59,32.91,32.91,0,0,1,.3-4.22c.21-1.56.58-3.57,1.09-5.93l8.06-33.34H329a1.5,1.5,0,0,0,1.45-1.14l4-16.66A1.49,1.49,0,0,0,334.16,114.2Z"/></g><path class="cls-2" d="M304.91,78.18c146.25,2.69,187.8,36.06,187.8,36.06s-41.65-58.32-179.1-58.53c-141.68-.19-190.35,54.78-190.35,54.78S193.25,76.11,304.91,78.18Z"/><g class="cls-5"><path class="cls-6" d="M438.28,77.33c28.42,12.88,42.45,27.13,46.94,32.33a53.35,53.35,0,0,1,7.49,4.58S478.25,94,438.28,77.33Z"/><path class="cls-6" d="M299.08,75.65c-79.56-1.48-137.94,15.54-164.94,25.46a76.85,76.85,0,0,0-10.88,9.38s70-34.38,181.65-32.31c93.32,1.72,144,15.93,168.47,26C451.63,94.15,400.57,77.52,299.08,75.65Z"/></g><path class="cls-2" d="M134.74,84a7.66,7.66,0,0,0,3.55-3.16,3.62,3.62,0,0,0-.19-3.4,3.9,3.9,0,0,0-1.4-1.56,5,5,0,0,0-2-.69,11.72,11.72,0,0,0-2.56-.08c-1,.07-2,.2-3.19.4s-2.35.29-3.5.36a11.13,11.13,0,0,1-3.29-.3,8.37,8.37,0,0,1-2.93-1.38,8.48,8.48,0,0,1-2.38-2.88,8.63,8.63,0,0,1-.65-7.6q1.47-3.68,6.07-6.17a19.28,19.28,0,0,1,5.08-2,15.8,15.8,0,0,1,4-.45l.7,5.12a14.12,14.12,0,0,0-3.72.45,15.83,15.83,0,0,0-3.66,1.44,6.07,6.07,0,0,0-2.8,2.64,3.32,3.32,0,0,0,.16,3.1,3.86,3.86,0,0,0,1.28,1.44,4.6,4.6,0,0,0,1.78.63,11.45,11.45,0,0,0,2.23.09,25.66,25.66,0,0,0,2.59-.27c1.62-.22,3.09-.36,4.42-.42a11.62,11.62,0,0,1,3.67.4,8.08,8.08,0,0,1,3,1.6,10.82,10.82,0,0,1,2.46,3.18,8.25,8.25,0,0,1,.55,7.55q-1.57,3.63-6.84,6.48A23.67,23.67,0,0,1,131,91a21.06,21.06,0,0,1-2.32.37,13,13,0,0,1-1.67.06l-.8-5.13a19.16,19.16,0,0,0,3.68-.37A16.34,16.34,0,0,0,134.74,84Z"/><path class="cls-2" d="M147,54.52a13.57,13.57,0,0,1,4.59-1.31,7.14,7.14,0,0,1,6.39,2.7,14.9,14.9,0,0,1,2.11,3.45l6.24,13.69c-.72.54-1.82,1.29-3.31,2.27a39.69,39.69,0,0,1-5.26,2.83,17.13,17.13,0,0,1-3.84,1.28,8.31,8.31,0,0,1-3.4,0,6.5,6.5,0,0,1-2.85-1.42,8.59,8.59,0,0,1-2.21-3.11,7.33,7.33,0,0,1-.75-3.62,6.86,6.86,0,0,1,1-3.11,9.65,9.65,0,0,1,2.41-2.55,18,18,0,0,1,3.34-2,18.26,18.26,0,0,1,4-1.25l-.4-.86a7.42,7.42,0,0,0-1-1.63,4,4,0,0,0-1.4-1.11,3.71,3.71,0,0,0-1.85-.33,6.44,6.44,0,0,0-2.34.65,20.66,20.66,0,0,0-3.16,1.75,16.07,16.07,0,0,0-2.15,1.71l-2.57-3.94a21.58,21.58,0,0,1,2.54-2A24.2,24.2,0,0,1,147,54.52Zm9.3,19.29a21.75,21.75,0,0,0,3.5-1.9l-2.64-5.79a10.27,10.27,0,0,0-1.35.3,13.23,13.23,0,0,0-1.85.68,12.89,12.89,0,0,0-1.66.92,5.67,5.67,0,0,0-1.36,1.19,3.25,3.25,0,0,0-.69,1.48,3.08,3.08,0,0,0,.3,1.78,3,3,0,0,0,2.32,2A6.35,6.35,0,0,0,156.27,73.81Z"/><path class="cls-2" d="M187.1,52.28a15.75,15.75,0,0,1,1.11,5.34,11.83,11.83,0,0,1-.85,4.72,10.64,10.64,0,0,1-2.72,3.83,13.89,13.89,0,0,1-4.53,2.69A34.22,34.22,0,0,1,170.66,71L158.15,38.17l4.95-2.91,4.58,12a12.88,12.88,0,0,1,1.91-1.75,12,12,0,0,1,7.43-2.3,8.91,8.91,0,0,1,4.11,1.26,12.14,12.14,0,0,1,3.4,3.09A18.4,18.4,0,0,1,187.1,52.28Zm-5.45,2a10.29,10.29,0,0,0-3.4-4.91,5.05,5.05,0,0,0-5-.39,8.58,8.58,0,0,0-3.83,2.94l5.09,13.35c.41-.06.93-.16,1.56-.31a21.22,21.22,0,0,0,2.2-.72,6,6,0,0,0,3.82-3.76A9.14,9.14,0,0,0,181.65,54.26Z"/><path class="cls-2" d="M190.1,51.36a15.57,15.57,0,0,1-.78-5.77,12.05,12.05,0,0,1,1.21-4.68,10.51,10.51,0,0,1,2.76-3.43,10.91,10.91,0,0,1,3.77-2,10,10,0,0,1,8.47.7q3.63,2.2,5.51,8.23c.09.31.19.65.29,1s.19.73.25,1l-15.4,4.78a6.51,6.51,0,0,0,3.35,3.8,7.83,7.83,0,0,0,5.6,0,16.86,16.86,0,0,0,3.48-1.47A15.92,15.92,0,0,0,210.94,52l2.11,4.27a8.49,8.49,0,0,1-1.08.85,16.6,16.6,0,0,1-1.65,1c-.63.34-1.31.68-2.06,1a22.15,22.15,0,0,1-2.32.87,14.73,14.73,0,0,1-5.65.73,10.41,10.41,0,0,1-4.55-1.42,11.07,11.07,0,0,1-3.4-3.22A16.77,16.77,0,0,1,190.1,51.36ZM205,44.05a8.09,8.09,0,0,0-1-2,5.49,5.49,0,0,0-1.47-1.49,4.61,4.61,0,0,0-1.84-.72,4.81,4.81,0,0,0-2.21.21,5.08,5.08,0,0,0-2,1.16,5.43,5.43,0,0,0-1.2,1.74,6,6,0,0,0-.45,2.08,9.42,9.42,0,0,0,.14,2.19Z"/><path class="cls-2" d="M223.39,41.56a15.42,15.42,0,0,1-.3-5.21,12.19,12.19,0,0,1,1.45-4.58,11,11,0,0,1,3.12-3.52,12.34,12.34,0,0,1,4.71-2.07A17,17,0,0,1,239,26l-.16,4.86a11.83,11.83,0,0,0-2.32-.21,11.66,11.66,0,0,0-2.64.29,6.17,6.17,0,0,0-4.47,3.17,9.14,9.14,0,0,0-.39,6.19,9.45,9.45,0,0,0,2.88,5.36q2.07,1.76,5.85.91a14.22,14.22,0,0,0,2.72-.9,13.32,13.32,0,0,0,2.22-1.23l1.81,4.46A11.47,11.47,0,0,1,242,50.35a19.89,19.89,0,0,1-3.73,1.23,14,14,0,0,1-5.53.23,10.17,10.17,0,0,1-4.33-1.8,11.26,11.26,0,0,1-3.11-3.54A17.33,17.33,0,0,1,223.39,41.56Z"/><path class="cls-2" d="M266.26,33.36a16.23,16.23,0,0,1,0,5.43,11.84,11.84,0,0,1-1.69,4.46,10.85,10.85,0,0,1-3.25,3.22,12,12,0,0,1-4.58,1.7A11.6,11.6,0,0,1,251.9,48a10.92,10.92,0,0,1-4.07-2,12.2,12.2,0,0,1-3-3.69,15.68,15.68,0,0,1-1.71-5.16,15.83,15.83,0,0,1,0-5.41,12.12,12.12,0,0,1,1.75-4.44,10.64,10.64,0,0,1,3.25-3.19,11.75,11.75,0,0,1,4.51-1.67,12.05,12.05,0,0,1,4.84.16,10.48,10.48,0,0,1,4.08,2,12.26,12.26,0,0,1,3,3.67A15.74,15.74,0,0,1,266.26,33.36ZM257.08,12l-6.33,8.62-3.17-2.08L253,9.24Zm3.46,22.29a9.82,9.82,0,0,0-2.48-5.54,5.5,5.5,0,0,0-8.63,1.39,9.76,9.76,0,0,0-.62,6,10,10,0,0,0,2.49,5.61,5.47,5.47,0,0,0,8.63-1.39A10.06,10.06,0,0,0,260.54,34.29Z"/><path class="cls-2" d="M284.67,31a12.14,12.14,0,0,0-1.36-5.54c-.71-1.11-1.95-1.6-3.69-1.48a17.21,17.21,0,0,0-2,.29c-.74.15-1.29.27-1.66.36l1.42,20-5.64.4-1.71-24a38.4,38.4,0,0,1,4.21-1.2,34.77,34.77,0,0,1,5.54-.83,11,11,0,0,1,4.17.37A8.13,8.13,0,0,1,286.72,21a11.22,11.22,0,0,1,1.25-.89,12,12,0,0,1,1.72-.91,14.7,14.7,0,0,1,2-.74,10.93,10.93,0,0,1,2.2-.4,11.48,11.48,0,0,1,4.74.5,6.9,6.9,0,0,1,3.06,2.11,9.09,9.09,0,0,1,1.7,3.5,25.35,25.35,0,0,1,.73,4.59l1,13.92-5.65.4-.92-13a12.53,12.53,0,0,0-1.34-5.55c-.7-1.1-1.94-1.59-3.71-1.47a7.59,7.59,0,0,0-2.53.63,8.4,8.4,0,0,0-1.76,1,12.14,12.14,0,0,1,.69,2.47,28.42,28.42,0,0,1,.35,2.83l1,13.69-5.64.4Z"/><path class="cls-2" d="M332.07,30.86a16.05,16.05,0,0,1-1,5.34,11.83,11.83,0,0,1-2.47,4.08,10.65,10.65,0,0,1-3.77,2.58,12.56,12.56,0,0,1-9.56-.21,11,11,0,0,1-3.64-2.74,12.27,12.27,0,0,1-2.31-4.18,16,16,0,0,1-.75-5.39,15.64,15.64,0,0,1,1-5.32A12.08,12.08,0,0,1,312.11,21a10.89,10.89,0,0,1,3.78-2.55,11.66,11.66,0,0,1,4.74-.82,11.85,11.85,0,0,1,4.72,1A10.51,10.51,0,0,1,329,21.34a12.46,12.46,0,0,1,2.32,4.16A15.53,15.53,0,0,1,332.07,30.86Zm-5.79-.13a9.82,9.82,0,0,0-1.44-5.89,5.5,5.5,0,0,0-8.74-.2,9.75,9.75,0,0,0-1.69,5.83,10,10,0,0,0,1.43,6,5.46,5.46,0,0,0,8.74.19A10,10,0,0,0,326.28,30.73Z"/><path class="cls-2" d="M344.61,31.92a15.4,15.4,0,0,1,1.44-5,12.29,12.29,0,0,1,2.89-3.84,10.93,10.93,0,0,1,4.1-2.28,12.26,12.26,0,0,1,5.14-.39,16.82,16.82,0,0,1,6.34,2L362.76,27a12.28,12.28,0,0,0-2.12-1,11.54,11.54,0,0,0-2.59-.6,6.15,6.15,0,0,0-5.26,1.5,9.22,9.22,0,0,0-2.43,5.71,9.54,9.54,0,0,0,.93,6q1.38,2.34,5.23,2.8a14.39,14.39,0,0,0,2.86,0,13.67,13.67,0,0,0,2.5-.42l.23,4.81a11.66,11.66,0,0,1-2.91.51,19.82,19.82,0,0,1-3.92-.08,14.18,14.18,0,0,1-5.3-1.61,10.38,10.38,0,0,1-3.48-3.14,11.36,11.36,0,0,1-1.77-4.38A17.6,17.6,0,0,1,344.61,31.92Z"/><path class="cls-2" d="M384.06,49.83c-1.13.08-2.58.1-4.35.07a33.85,33.85,0,0,1-5.73-.63,12.56,12.56,0,0,1-4.69-1.77,8,8,0,0,1-2.68-2.92,9.39,9.39,0,0,1-1-3.89,19.38,19.38,0,0,1,.36-4.64l2.6-13.67,5.56,1.06-2.43,12.78q-.75,3.91.05,5.81t3.61,2.43c.67.13,1.39.23,2.15.31a12.15,12.15,0,0,0,1.73.09L383,25.13l5.56,1.06Z"/><path class="cls-2" d="M394.39,53.25l-5.49-1.37,6-24.09,5.49,1.37Zm8.35-31a3.33,3.33,0,0,1-1.62,2.24,3.65,3.65,0,0,1-4.76-1.19,3.3,3.3,0,0,1-.38-2.74,3.38,3.38,0,0,1,1.63-2.28,3.48,3.48,0,0,1,2.63-.32,3.38,3.38,0,0,1,2.5,4.29Z"/><path class="cls-2" d="M419.36,59.83a33.45,33.45,0,0,1-4.33-.35,31.87,31.87,0,0,1-5.24-1.18,14,14,0,0,1-4.68-2.4,10.65,10.65,0,0,1-3-3.63A11.34,11.34,0,0,1,401,47.64a15.71,15.71,0,0,1,.77-5.4A18.56,18.56,0,0,1,404,37.35a11.85,11.85,0,0,1,3.25-3.29,9.49,9.49,0,0,1,4-1.5A11,11,0,0,1,416,33a10.7,10.7,0,0,1,2.86,1.34,14.16,14.16,0,0,1,1.95,1.6l3.54-11.38,5.68.77Zm-12-16a9.09,9.09,0,0,0-.07,6.22,6,6,0,0,0,4.05,3.52,20,20,0,0,0,2.24.57c.63.11,1.16.18,1.57.21l4.23-13.6a9.24,9.24,0,0,0-1.61-1.52A7.8,7.8,0,0,0,415.36,38a5,5,0,0,0-4.94.7A10.29,10.29,0,0,0,407.34,43.82Z"/><path class="cls-2" d="M440.69,41.56A13.46,13.46,0,0,1,444.82,44a7.48,7.48,0,0,1,2.12,3,7.36,7.36,0,0,1,.38,3.49,15.05,15.05,0,0,1-1,3.91l-5.51,14c-.88-.14-2.19-.41-3.93-.8a40.82,40.82,0,0,1-5.69-1.81,17.77,17.77,0,0,1-3.59-1.87,8.57,8.57,0,0,1-2.39-2.42,6.52,6.52,0,0,1-1-3,8.62,8.62,0,0,1,.7-3.76,7.27,7.27,0,0,1,2.08-3A6.72,6.72,0,0,1,430,50.17a9.58,9.58,0,0,1,3.51-.05,18,18,0,0,1,3.74,1A17.56,17.56,0,0,1,439,52a16.42,16.42,0,0,1,1.89,1.18l.35-.89a7.77,7.77,0,0,0,.48-1.85,4.09,4.09,0,0,0-.18-1.78,3.82,3.82,0,0,0-1.05-1.56,6.47,6.47,0,0,0-2.1-1.23,21.94,21.94,0,0,0-3.45-1.06,15.3,15.3,0,0,0-2.72-.35l1-4.59a23.43,23.43,0,0,1,3.19.44A24.56,24.56,0,0,1,440.69,41.56Zm-7.41,20.09a20.47,20.47,0,0,0,3.8,1.19l2.33-5.92a12,12,0,0,0-1.15-.76,12.87,12.87,0,0,0-1.78-.85,11.89,11.89,0,0,0-1.81-.56,5.63,5.63,0,0,0-1.8-.15,3.2,3.2,0,0,0-1.55.54,3,3,0,0,0-1.07,1.44,3.08,3.08,0,0,0,.14,3.09A6.42,6.42,0,0,0,433.28,61.65Z"/><path class="cls-2" d="M465.88,58.88a15.41,15.41,0,0,0-1.55-1.27,13.64,13.64,0,0,0-2.5-1.45A11.17,11.17,0,0,0,460,55.5a11.42,11.42,0,0,0-1.48-.32l-8.36,18.05L445,70.85l9.94-21.45a31.34,31.34,0,0,1,4.2.67,25.1,25.1,0,0,1,5.17,1.79,12.54,12.54,0,0,1,1.16.62c.43.25.86.52,1.28.8s.81.57,1.19.87a9.22,9.22,0,0,1,.89.75Z"/><path class="cls-2" d="M474.53,50.12l5.45,1.8-3.49,6.64,7.7,4L482,66.85l-7.69-4-4.71,9A7.46,7.46,0,0,0,468.4,76a3.68,3.68,0,0,0,2.22,2.61,10,10,0,0,0,2.58,1,16.94,16.94,0,0,0,2,.34l-1.29,4.47a24.2,24.2,0,0,1-2.69-.42,14.15,14.15,0,0,1-3.52-1.34,11.87,11.87,0,0,1-3.54-2.67,6.47,6.47,0,0,1-1.5-3.12,8.15,8.15,0,0,1,.24-3.57,21.13,21.13,0,0,1,1.67-4.09Z"/><path class="cls-2" d="M480.42,74.75a15.67,15.67,0,0,1,3.78-4.43,12.09,12.09,0,0,1,4.3-2.21,10.53,10.53,0,0,1,4.39-.23,11.23,11.23,0,0,1,4,1.45A10,10,0,0,1,502,76.12q.78,4.18-2.47,9.59c-.16.28-.35.58-.57.91s-.42.62-.61.88l-13.82-8.32a6.53,6.53,0,0,0-.6,5,7.85,7.85,0,0,0,3.74,4.17A17.47,17.47,0,0,0,491.13,90a14.78,14.78,0,0,0,2.72.69l-1.78,4.42a10.12,10.12,0,0,1-1.36-.24,17.62,17.62,0,0,1-1.85-.56c-.67-.23-1.38-.52-2.12-.86a22,22,0,0,1-2.2-1.15,14.84,14.84,0,0,1-4.31-3.73,10.42,10.42,0,0,1-2-4.34,11.07,11.07,0,0,1,.14-4.68A16.71,16.71,0,0,1,480.42,74.75ZM495.8,81a7.63,7.63,0,0,0,.88-2.1,5.31,5.31,0,0,0,.13-2.08,4.65,4.65,0,0,0-.68-1.86,4.86,4.86,0,0,0-1.63-1.5,5.12,5.12,0,0,0-2.22-.76,5.29,5.29,0,0,0-2.1.27,6,6,0,0,0-1.85,1,9.52,9.52,0,0,0-1.54,1.57Z"/><g class="cls-5"><path class="cls-7" d="M99.25,227.6q6.52,0,10,2.38c2.32,1.59,3.49,4.07,3.49,7.44a10.09,10.09,0,0,1-.93,4.52,7.78,7.78,0,0,1-2.71,3.07,12.47,12.47,0,0,1-4.32,1.76,27.63,27.63,0,0,1-5.84.56H96.22v10.55H90.77V228.34a28.05,28.05,0,0,1,4.22-.59Q97.3,227.6,99.25,227.6Zm.39,4.72c-1.38,0-2.52,0-3.42.13v10.21h2.64a13.37,13.37,0,0,0,6.06-1.11q2.11-1.1,2.12-4.17a4.93,4.93,0,0,0-.57-2.47,4,4,0,0,0-1.55-1.55,7.29,7.29,0,0,0-2.36-.8A16.84,16.84,0,0,0,99.64,232.32Z"/><path class="cls-7" d="M124.25,234.7a12.62,12.62,0,0,1,4.37.65A6.52,6.52,0,0,1,133,240a13.93,13.93,0,0,1,.45,3.65v13.71c-.81.18-2,.38-3.65.63a38.07,38.07,0,0,1-5.52.37,16.59,16.59,0,0,1-3.72-.39,7.88,7.88,0,0,1-2.88-1.26,5.87,5.87,0,0,1-1.86-2.25,7.88,7.88,0,0,1-.67-3.41,6.64,6.64,0,0,1,.76-3.29,6.23,6.23,0,0,1,2.06-2.18,8.77,8.77,0,0,1,3-1.22,17.29,17.29,0,0,1,3.57-.36,16.63,16.63,0,0,1,1.82.1,19.59,19.59,0,0,1,2,.37v-.86a6.51,6.51,0,0,0-.22-1.73,3.53,3.53,0,0,0-.75-1.45,3.64,3.64,0,0,0-1.43-1,6.42,6.42,0,0,0-2.23-.34,20.1,20.1,0,0,0-3.33.26,14.28,14.28,0,0,0-2.46.6l-.65-4.23a19,19,0,0,1,2.9-.7A22.68,22.68,0,0,1,124.25,234.7Zm.43,19.5a18.92,18.92,0,0,0,3.68-.26v-5.79a10.46,10.46,0,0,0-1.25-.26,11.37,11.37,0,0,0-1.82-.13,11.55,11.55,0,0,0-1.75.13,5.54,5.54,0,0,0-1.6.48,2.87,2.87,0,0,0-1.15,1,2.7,2.7,0,0,0-.43,1.58,2.76,2.76,0,0,0,1.17,2.57A6,6,0,0,0,124.68,254.2Z"/><path class="cls-7" d="M139.82,236a37.09,37.09,0,0,1,3.94-.82,33.8,33.8,0,0,1,5.36-.39,12.42,12.42,0,0,1,4.63.76,7.21,7.21,0,0,1,3,2.12,8,8,0,0,1,1.56,3.29,18.47,18.47,0,0,1,.46,4.21v12.72h-5.24V246a17.12,17.12,0,0,0-.24-3.1,5.46,5.46,0,0,0-.77-2.07,3.11,3.11,0,0,0-1.48-1.17,6.27,6.27,0,0,0-2.27-.37,18.85,18.85,0,0,0-2.07.13c-.72.09-1.26.16-1.6.22v18.25h-5.24Zm16.37-7.5a6.73,6.73,0,0,1-1,1.34,6,6,0,0,1-1.39,1.06,3.47,3.47,0,0,1-1.73.43,4.44,4.44,0,0,1-1.47-.24,12,12,0,0,1-1.36-.54c-.45-.2-.88-.38-1.3-.54a3.65,3.65,0,0,0-1.23-.23,1.94,1.94,0,0,0-1.41.56,4.67,4.67,0,0,0-.93,1.3l-2.63-1.56a8.45,8.45,0,0,1,.62-1.32,6.53,6.53,0,0,1,1-1.34,6.36,6.36,0,0,1,1.41-1.06,3.47,3.47,0,0,1,1.73-.43,4,4,0,0,1,1.47.26c.46.17.91.35,1.36.54l1.3.54a3.28,3.28,0,0,0,1.23.26,1.93,1.93,0,0,0,1.41-.59,4.65,4.65,0,0,0,.93-1.32l2.64,1.56A14,14,0,0,1,156.19,228.49Z"/><path class="cls-7" d="M172.65,234.7a12.62,12.62,0,0,1,4.37.65,6.88,6.88,0,0,1,2.83,1.81,6.78,6.78,0,0,1,1.52,2.84,13.93,13.93,0,0,1,.45,3.65v13.71c-.81.18-2,.38-3.65.63a38.07,38.07,0,0,1-5.52.37,16.59,16.59,0,0,1-3.72-.39,7.76,7.76,0,0,1-2.87-1.26,5.7,5.7,0,0,1-1.86-2.25,7.74,7.74,0,0,1-.67-3.41,6.64,6.64,0,0,1,.75-3.29,6.23,6.23,0,0,1,2.06-2.18,8.77,8.77,0,0,1,3-1.22,17.29,17.29,0,0,1,3.57-.36,16.63,16.63,0,0,1,1.82.1,19.59,19.59,0,0,1,2,.37v-.86a7,7,0,0,0-.21-1.73,3.49,3.49,0,0,0-2.19-2.43,6.42,6.42,0,0,0-2.23-.34,20.1,20.1,0,0,0-3.33.26,14.28,14.28,0,0,0-2.46.6l-.65-4.23a19,19,0,0,1,2.9-.7A22.76,22.76,0,0,1,172.65,234.7Zm.44,19.5a18.87,18.87,0,0,0,3.67-.26v-5.79a10.46,10.46,0,0,0-1.25-.26,11.37,11.37,0,0,0-1.82-.13,11.55,11.55,0,0,0-1.75.13,5.54,5.54,0,0,0-1.6.48,2.87,2.87,0,0,0-1.15,1,2.7,2.7,0,0,0-.43,1.58,2.76,2.76,0,0,0,1.17,2.57A6,6,0,0,0,173.09,254.2Z"/><path class="cls-7" d="M196.1,258.31a14.66,14.66,0,0,1-3.88-.51,6,6,0,0,1-2.44-1.37,4.79,4.79,0,0,1-1.27-2.2,11,11,0,0,1-.37-3v-26l5.23-.86v25.91a7.31,7.31,0,0,0,.15,1.6,2.34,2.34,0,0,0,1.6,1.79,8.51,8.51,0,0,0,1.71.37Z"/><path class="cls-7" d="M199.82,246.68a14.18,14.18,0,0,1,.88-5.23,11.07,11.07,0,0,1,2.36-3.75,9.87,9.87,0,0,1,3.37-2.25,10.56,10.56,0,0,1,3.9-.75,9.34,9.34,0,0,1,7.29,2.89c1.74,1.94,2.61,4.82,2.61,8.66,0,.28,0,.61,0,1s0,.68-.06,1H205.22a6,6,0,0,0,1.93,4.22,7.29,7.29,0,0,0,4.95,1.49,16.3,16.3,0,0,0,3.48-.34,14.42,14.42,0,0,0,2.49-.74l.69,4.28a7.65,7.65,0,0,1-1.19.46,16.18,16.18,0,0,1-1.73.43c-.65.13-1.35.24-2.1.32a19.17,19.17,0,0,1-2.29.13,13.89,13.89,0,0,1-5.19-.88,9.67,9.67,0,0,1-3.63-2.47,10.07,10.07,0,0,1-2.12-3.72A15.23,15.23,0,0,1,199.82,246.68ZM215,244.34a6.92,6.92,0,0,0-.3-2.05,5.14,5.14,0,0,0-.89-1.69,4.24,4.24,0,0,0-1.43-1.12,4.45,4.45,0,0,0-2-.41,4.58,4.58,0,0,0-3.65,1.64,5.35,5.35,0,0,0-1,1.69,8.72,8.72,0,0,0-.47,1.94Z"/><path class="cls-7" d="M231.44,254.12a6.86,6.86,0,0,0,3-.5,1.76,1.76,0,0,0,1-1.71,2.21,2.21,0,0,0-1-1.86,15.27,15.27,0,0,0-3.35-1.6,24,24,0,0,1-2.62-1.1,9.09,9.09,0,0,1-2.06-1.36A5.65,5.65,0,0,1,225,244.1a6.54,6.54,0,0,1-.5-2.7,5.91,5.91,0,0,1,2.3-4.91A9.88,9.88,0,0,1,233,234.7a20.34,20.34,0,0,1,6.53,1.08l-.95,4.24a13.35,13.35,0,0,0-2.21-.72,13.65,13.65,0,0,0-3.11-.32,5.43,5.43,0,0,0-2.6.54,1.78,1.78,0,0,0-1,1.67,2.4,2.4,0,0,0,.19,1,2.07,2.07,0,0,0,.67.8,7.93,7.93,0,0,0,1.25.74c.52.24,1.16.49,1.91.75a28.52,28.52,0,0,1,3.16,1.37,8.65,8.65,0,0,1,2.14,1.51,5.18,5.18,0,0,1,1.23,1.92,7.69,7.69,0,0,1,.39,2.6,5.59,5.59,0,0,1-2.4,4.91q-2.4,1.67-6.86,1.66a18.87,18.87,0,0,1-4.8-.49c-1.21-.34-2.06-.6-2.55-.8l.91-4.37a25.51,25.51,0,0,0,2.79.91A14.75,14.75,0,0,0,231.44,254.12Z"/><path class="cls-7" d="M276,246.59a16.25,16.25,0,0,1-.67,4.76,11.13,11.13,0,0,1-1.93,3.72,8.5,8.5,0,0,1-3.13,2.42,10.09,10.09,0,0,1-4.27.87,10.56,10.56,0,0,1-2.94-.39,10.71,10.71,0,0,1-2.2-.87v8.78h-5.24V236c1.07-.28,2.38-.56,3.94-.82a29.94,29.94,0,0,1,4.93-.39,13.13,13.13,0,0,1,4.8.83,9.91,9.91,0,0,1,3.61,2.35,10.53,10.53,0,0,1,2.3,3.72A14.33,14.33,0,0,1,276,246.59Zm-5.37.09a8.39,8.39,0,0,0-1.58-5.45q-1.57-1.95-5.08-1.95c-.49,0-1,0-1.53.07a7.7,7.7,0,0,0-1.58.28v12.93a8.1,8.1,0,0,0,1.84.89,7.22,7.22,0,0,0,2.44.41,4.68,4.68,0,0,0,4.17-2A9.19,9.19,0,0,0,270.62,246.68Z"/><path class="cls-7" d="M288.92,234.7a12.62,12.62,0,0,1,4.37.65,6.52,6.52,0,0,1,4.35,4.65,13.93,13.93,0,0,1,.45,3.65v13.71c-.81.18-2,.38-3.66.63a37.92,37.92,0,0,1-5.51.37,16.47,16.47,0,0,1-3.72-.39,7.81,7.81,0,0,1-2.88-1.26,5.87,5.87,0,0,1-1.86-2.25,7.88,7.88,0,0,1-.67-3.41,6.64,6.64,0,0,1,.76-3.29,6.2,6.2,0,0,1,2.05-2.18,8.9,8.9,0,0,1,3-1.22,17.29,17.29,0,0,1,3.57-.36,16.63,16.63,0,0,1,1.82.1,19.59,19.59,0,0,1,2,.37v-.86a6.51,6.51,0,0,0-.22-1.73,3.65,3.65,0,0,0-.75-1.45,3.72,3.72,0,0,0-1.43-1,6.46,6.46,0,0,0-2.23-.34,20.1,20.1,0,0,0-3.33.26,14.66,14.66,0,0,0-2.47.6l-.64-4.23a18.83,18.83,0,0,1,2.89-.7A22.88,22.88,0,0,1,288.92,234.7Zm.43,19.5a18.92,18.92,0,0,0,3.68-.26v-5.79a10.28,10.28,0,0,0-1.26-.26,11.15,11.15,0,0,0-1.81-.13,11.55,11.55,0,0,0-1.75.13,5.45,5.45,0,0,0-1.6.48,2.87,2.87,0,0,0-1.15,1,2.7,2.7,0,0,0-.43,1.58,2.78,2.78,0,0,0,1.16,2.57A6,6,0,0,0,289.35,254.2Z"/><path class="cls-7" d="M317.38,240a18.28,18.28,0,0,0-1.79-.45,13.19,13.19,0,0,0-2.66-.24,12.48,12.48,0,0,0-3.21.48v18.12h-5.23V236.34a29.14,29.14,0,0,1,3.79-1.06,23.61,23.61,0,0,1,5-.5c.35,0,.75,0,1.22.07s.92.1,1.38.17.91.16,1.34.26.78.19,1,.28Z"/><path class="cls-7" d="M329.45,234.7a12.62,12.62,0,0,1,4.37.65,6.52,6.52,0,0,1,4.35,4.65,13.93,13.93,0,0,1,.45,3.65v13.71c-.81.18-2,.38-3.66.63a37.92,37.92,0,0,1-5.51.37,16.47,16.47,0,0,1-3.72-.39,7.81,7.81,0,0,1-2.88-1.26,5.87,5.87,0,0,1-1.86-2.25,7.88,7.88,0,0,1-.67-3.41,6.54,6.54,0,0,1,.76-3.29,6.2,6.2,0,0,1,2.05-2.18,8.9,8.9,0,0,1,3-1.22,17.29,17.29,0,0,1,3.57-.36,16.63,16.63,0,0,1,1.82.1,19.59,19.59,0,0,1,2,.37v-.86a6.51,6.51,0,0,0-.22-1.73,3.65,3.65,0,0,0-.75-1.45,3.72,3.72,0,0,0-1.43-1,6.46,6.46,0,0,0-2.23-.34,20.1,20.1,0,0,0-3.33.26,14.66,14.66,0,0,0-2.47.6l-.65-4.23a19.32,19.32,0,0,1,2.9-.7A22.88,22.88,0,0,1,329.45,234.7Zm.43,19.5a18.92,18.92,0,0,0,3.68-.26v-5.79a10.28,10.28,0,0,0-1.26-.26,11.15,11.15,0,0,0-1.81-.13,11.77,11.77,0,0,0-1.76.13,5.48,5.48,0,0,0-1.59.48,2.87,2.87,0,0,0-1.15,1,2.7,2.7,0,0,0-.43,1.58,2.78,2.78,0,0,0,1.16,2.57A6,6,0,0,0,329.88,254.2Z"/><path class="cls-7" d="M362.63,234.7a12.56,12.56,0,0,1,4.36.65,6.47,6.47,0,0,1,4.35,4.65,13.93,13.93,0,0,1,.45,3.65v13.71c-.8.18-2,.38-3.65.63a38,38,0,0,1-5.51.37,16.47,16.47,0,0,1-3.72-.39,7.74,7.74,0,0,1-2.88-1.26,5.78,5.78,0,0,1-1.86-2.25,7.74,7.74,0,0,1-.67-3.41,6.64,6.64,0,0,1,.75-3.29,6.23,6.23,0,0,1,2.06-2.18,8.9,8.9,0,0,1,3-1.22,17.12,17.12,0,0,1,3.56-.36,16.5,16.5,0,0,1,1.82.1,19.12,19.12,0,0,1,2,.37v-.86a7,7,0,0,0-.21-1.73,3.49,3.49,0,0,0-2.19-2.43,6.4,6.4,0,0,0-2.22-.34,19.92,19.92,0,0,0-3.33.26,14.42,14.42,0,0,0-2.47.6l-.65-4.23a19,19,0,0,1,2.9-.7A22.8,22.8,0,0,1,362.63,234.7Zm.43,19.5a18.81,18.81,0,0,0,3.67-.26v-5.79a9.65,9.65,0,0,0-1.25-.26,11.28,11.28,0,0,0-1.82-.13,11.64,11.64,0,0,0-1.75.13,5.64,5.64,0,0,0-1.6.48,2.77,2.77,0,0,0-1.14,1,2.7,2.7,0,0,0-.44,1.58,2.76,2.76,0,0,0,1.17,2.57A6,6,0,0,0,363.06,254.2Z"/><path class="cls-7" d="M397.32,257.19a29.28,29.28,0,0,1-3.92.86,30.28,30.28,0,0,1-4.95.39,13.13,13.13,0,0,1-4.8-.82,9.85,9.85,0,0,1-3.61-2.36,10.35,10.35,0,0,1-2.3-3.72,14.23,14.23,0,0,1-.8-4.9,16.43,16.43,0,0,1,.67-4.87,10.76,10.76,0,0,1,2-3.74,8.77,8.77,0,0,1,3.16-2.4,10.16,10.16,0,0,1,4.28-.85,9.79,9.79,0,0,1,2.9.39,12.41,12.41,0,0,1,2.16.87V225.18l5.24-.86Zm-15-10.68a8.18,8.18,0,0,0,1.64,5.42,5.57,5.57,0,0,0,4.54,2,16.4,16.4,0,0,0,2.14-.11c.59-.07,1.08-.15,1.45-.23v-13a8.1,8.1,0,0,0-1.84-.89,7.27,7.27,0,0,0-2.44-.41,4.66,4.66,0,0,0-4.17,1.95A9.19,9.19,0,0,0,382.31,246.51Z"/><path class="cls-7" d="M422.53,257.19c-1,.26-2.32.53-3.93.8a32.39,32.39,0,0,1-5.32.41,11.75,11.75,0,0,1-4.57-.78,7.42,7.42,0,0,1-2.94-2.16,8.63,8.63,0,0,1-1.58-3.31,17.94,17.94,0,0,1-.47-4.22V235.26H409v11.85q0,3.63,1.06,5.19a4.15,4.15,0,0,0,3.7,1.56q.94,0,2-.09a10.69,10.69,0,0,0,1.58-.21v-18.3h5.23Z"/><path class="cls-7" d="M437.07,258.31a14.66,14.66,0,0,1-3.88-.51,6,6,0,0,1-2.44-1.37,4.79,4.79,0,0,1-1.27-2.2,11,11,0,0,1-.37-3v-26l5.23-.86v25.91a7.31,7.31,0,0,0,.15,1.6,2.34,2.34,0,0,0,1.6,1.79,8.51,8.51,0,0,0,1.71.37Z"/><path class="cls-7" d="M441.78,229.29l5.24-.86v6.83h8v4.37h-8v9.21a6.66,6.66,0,0,0,.86,3.89,3.43,3.43,0,0,0,2.94,1.17,9.65,9.65,0,0,0,2.53-.3,16.82,16.82,0,0,0,1.75-.56l.87,4.15a19.19,19.19,0,0,1-2.38.8,13.08,13.08,0,0,1-3.46.41,11,11,0,0,1-4-.65,6,6,0,0,1-2.58-1.88,7.54,7.54,0,0,1-1.34-3,18.61,18.61,0,0,1-.39-4Z"/><path class="cls-7" d="M480.06,246.55a14.58,14.58,0,0,1-.78,4.89,10.86,10.86,0,0,1-2.2,3.76,9.8,9.8,0,0,1-3.44,2.42,11,11,0,0,1-4.43.87,10.93,10.93,0,0,1-4.42-.87,9.87,9.87,0,0,1-3.41-2.42,10.92,10.92,0,0,1-2.23-3.76,14.09,14.09,0,0,1-.8-4.89,13.94,13.94,0,0,1,.8-4.87,10.9,10.9,0,0,1,2.25-3.74,9.8,9.8,0,0,1,3.44-2.4,11.09,11.09,0,0,1,4.37-.84,11.33,11.33,0,0,1,4.39.84,9.58,9.58,0,0,1,3.43,2.4,11,11,0,0,1,2.23,3.74A14.17,14.17,0,0,1,480.06,246.55Zm-5.36,0a8.86,8.86,0,0,0-1.45-5.34,5.14,5.14,0,0,0-8.09,0,8.79,8.79,0,0,0-1.45,5.34,8.94,8.94,0,0,0,1.45,5.4,5.11,5.11,0,0,0,8.09,0A9,9,0,0,0,474.7,246.55Z"/></g></g></g></svg>